Patient4_TMGait_0pt4_02_left_39_EMG.mot
version=1
nRows=23
nColumns=33
inDegrees=no
endheader
time	1LAddLong	2LGlutMax	3LGlutMed	4LIliopsoas	5LSemiMemb	6LBicFemLong	7LRecFem	8LVastMed	9LVastLat	10LGasMed	11LTibAnt	12lTibPost	13LPeroneusLong	14LSol	15LExtDigLong	16LFlexDigLong	17RAddLong	18RGlutMax	19RGlutMed	20RIliopsoas	21RSemiMemb	22RBicFemLong	23RRecFem	24RVastMed	25RVastLat	26RGasMed	27RTibAnt	28RTibPost	29RPeroneusLong	30RSol	31RExtDigLong	32RFlexDigLong
53.01	-0.010376	0.079956	-0.11704	0.007172	-0.012817	0.049438	-0.079346	0.008698	-0.021667	-0.15579	0.0177	0.006866	-0.12161	0.007629	-0.000458	-0.007019	-0.039978	0.28732	0.045929	0.14648	0.1004	0.26489	-0.18646	0.24185	0.043945	-0.01236	-0.19836	-0.00824	0.018311	-0.03006	0.000305	-0.015259
53.011	-0.005188	0.056458	-0.10178	0.008698	-0.024567	-0.038605	-0.12558	0.006714	-0.018005	-0.085754	0.025177	0.007019	-0.088654	0.083771	0.006561	-0.000458	-0.004578	0.12253	0.12482	0.093689	0.091858	-0.016479	-0.22201	0.29678	0.57449	-0.014191	0.098419	-0.013123	-0.050812	-0.018005	0	-0.014496
53.012	-0.014191	0.043488	-0.080109	-0.000153	-0.031281	-0.062714	-0.11459	0.002594	-0.015717	0.21927	-0.029297	0.001068	-0.032349	0.083771	0.020142	-0.007629	-0.017242	0.074921	0.15823	0.027161	0.088196	-0.1413	-0.22919	0.29175	0.72617	-0.014343	0.04364	-0.011902	-0.081024	-0.005646	-0.003967	-0.010376
53.013	0.077972	0.070801	-0.075836	0.001526	-0.030975	-0.036926	-0.10223	0.012817	-0.00824	0.013123	0.003357	-0.001068	0.012054	0.070038	0.020142	0.00412	-0.046082	-0.009308	0.12054	-0.064087	-0.17563	-0.26016	-0.15091	0.17303	0.52612	-0.016479	-0.03067	-0.006409	-0.032806	0.020752	-0.000916	-0.019989
53.014	-0.042267	0.026093	-0.085602	0.007782	-0.016937	-0.03952	-0.097656	0.007477	0	-0.23514	0.00946	-0.011902	0.048828	0.056915	0.019226	0.002289	-0.032196	-0.080566	0.65994	-0.075989	-0.28976	-0.24246	-0.00351	0.016174	0.094757	-0.02121	-0.010071	-0.006714	-0.016174	0.002441	0.001221	-0.007629
53.015	-0.016785	0.044403	-0.086365	0.009766	-0.044098	-0.041504	-0.10101	0.003357	-0.012207	-0.16083	-0.018616	-0.001678	0.10223	0.04303	0.014343	-0.005035	-0.021515	0.028534	0.65735	0.023193	0.040131	-0.043182	-0.048065	0.2507	-0.22949	-0.013885	0.010986	-0.01297	-0.007935	-0.004883	-0.00061	-0.00824
53.016	0.006866	0.042572	-0.084381	0.010529	0.020599	-0.036316	-0.095215	0.003967	-0.016327	-0.080261	0.01709	-0.009155	0.15198	0.058594	-0.010834	0.013885	-0.042114	0.057373	0.15839	0.023346	0.47501	0.11047	-0.08606	0.39215	-0.01297	-0.013885	0.003052	-0.010071	-0.010223	0.017548	-0.001831	-0.006714
53.017	0.002594	0.029144	-0.082703	0.015411	0.016327	0.011597	-0.09491	-0.006104	0.003204	0.24811	0.033112	0.001068	0.1384	0.062866	-0.025024	0.011597	-0.11383	0.091248	0.26901	0.016937	0.72632	-0.034943	-0.12482	0.46661	0.31815	-0.009918	-0.036011	-0.007477	0.003052	0.011597	0.000305	-0.011597
53.018	0.000763	0.040894	-0.070648	0.001373	-0.019531	-0.033264	-0.13458	-0.005341	0.022583	0.56397	0.027313	0.014954	0.05661	0.064545	-0.037231	0.012817	-0.16083	0.087433	0.35309	-0.005646	0.56793	-0.12299	-0.10971	0.2919	0.83893	-0.015564	-0.02121	-0.01236	0.000916	-0.017548	-0.002747	-0.002747
53.019	0.010376	0.074158	-0.049591	0.010529	-0.049744	-0.079651	-0.12131	-0.004578	0.011749	0.72327	0.036163	0.005951	-0.060425	0.023499	-0.042114	-0.002899	-0.10773	0.10605	0.47012	-0.21606	0.17395	-0.13229	0.14938	-0.28427	0.64301	-0.015259	-0.012817	-0.005951	-0.011444	-0.003357	-0.005951	-0.009613
53.02	0.002747	0.075378	-0.045166	-0.016022	-0.058441	-0.1355	-0.095367	-0.005035	0.007324	0.16434	0.021362	0.024872	-0.11887	-0.00824	-0.014801	-0.047455	-0.041656	-0.07782	0.43503	-0.29144	-0.11551	-0.19318	0.080872	-0.30975	0.18799	-0.013428	-0.017853	-0.011444	0.005951	0.007629	-0.001984	-0.015259
53.021	0.003967	0.097809	-0.038452	-0.001373	-0.007172	-0.19623	-0.088501	0.00412	0.00946	-0.48752	0.011902	0.011444	-0.057678	-0.040894	-0.010071	-0.061951	0.024414	-0.093994	0.14404	-0.12131	-0.004883	-0.097351	-0.023956	-0.23392	-0.40405	-0.013428	-0.041046	-0.00824	0.004578	0.009766	-0.002136	-0.008087
53.022	0.011139	0.069427	-0.041809	0.019836	0.047302	-0.099945	-0.065613	-0.00824	0.011597	-0.85205	-0.007629	0.008545	-0.083313	-0.22568	-0.012512	0.049286	0.058441	-0.21637	0.16419	0.047455	0.097656	-0.18845	0.044098	-0.13702	-0.6546	0.006409	-0.040588	-0.010376	0.001984	0.001678	-0.007782	-0.01358
53.023	0.002136	0.009613	-0.044556	0.032654	0.017548	-0.029602	-0.063324	0.002899	-0.000153	-0.49332	-0.022583	0.003815	-0.027924	-0.49103	-0.000153	0.10773	0.046844	-0.27008	0.34622	0.42145	0.18692	-0.063019	-0.020142	-0.087433	-0.5571	-0.010376	-0.007782	-0.009308	-0.014648	0.010986	-0.003815	-0.010681
53.024	0.023651	0.032806	-0.038757	0.033569	-0.000153	-0.055237	-0.072937	-0.006866	0.001678	0.13092	-0.027466	0.01297	-0.015106	-0.3241	0.016937	-0.011292	0.010376	-0.27298	0.29739	0.38132	0.046539	-0.08667	-0.18845	-0.013428	-0.60654	-0.009613	-0.001831	-0.009308	0.007172	-0.012665	0.000153	-0.008698
53.025	0.020447	0.070343	-0.018005	-0.005035	0.065918	-0.019379	-0.083008	-0.005646	-0.001526	0.62073	-0.015259	-0.005341	-0.025635	0.18906	0.029144	-0.32715	-0.015106	-0.25589	0.24109	0.17639	-0.30045	-0.055237	0.14389	-0.17349	-0.77743	-0.004425	0.003967	-0.005951	0.039368	0.004272	-0.007935	-0.007935
53.026	0.007019	0.08255	0.007935	-0.029602	0.090179	-0.018768	-0.071716	-0.003204	-0.016632	0.91263	-0.02533	0.006409	0.16876	0.39078	0.021362	-0.18036	-0.007324	-0.16556	0.22003	0.1059	-0.22553	-0.022125	0.10666	-0.040131	-0.64346	-0.004272	0.015106	-0.005341	0.13687	-0.009766	-0.000305	-0.0177
53.027	0.001984	0.069427	-0.006561	-0.010834	0.042725	0.02182	-0.052338	0.005798	-0.037537	0.93903	-0.016327	-0.004425	0.22827	0.19379	-0.004883	0.98724	-0.031586	-0.16327	0.11902	0.063782	0.030823	-0.019226	0.016785	-0.005035	-0.44373	-0.004578	0.019531	-0.009613	0.12253	0.001068	-0.001221	-0.015869
53.028	-0.011597	0.068817	-0.042725	0.020447	-0.016937	0.057831	-0.084839	0.007935	-0.037079	0.81177	-0.001373	-0.023804	0.065308	-0.013885	-0.019836	-0.26032	-0.006714	-0.16068	0.14191	0.027618	0.10651	-0.002441	0.10788	-0.1236	-0.11841	-0.00061	0.026093	-0.007324	-0.04425	-0.023346	-0.00061	-0.014343
53.029	0.008087	0.11429	-0.006256	0.01297	-0.046997	0.093689	-0.11078	0.000763	-0.043945	0.063019	0.009155	0.002289	-0.045166	-0.057831	-0.046692	0.16571	0.015106	-0.15076	0.024567	-0.058594	0.098724	-0.039215	0.12039	-0.076904	-0.054169	-0.006256	0.016327	-0.005188	-0.1767	-0.001678	-0.000305	-0.014343
53.03	0.004272	0.11993	0.033569	0.005341	0.032349	0.076599	-0.12405	-0.009613	-0.041962	-0.7489	0.014343	0.040436	0.014648	-0.13672	-0.084839	0.11124	0.044708	-0.1561	-0.18768	-0.091705	0.047455	-0.012054	0.10254	-0.2446	-0.077667	-0.007324	0.031281	-0.008545	0.003204	-0.009766	-0.001526	-0.013733
53.031	0.021362	0.10696	0.056763	0.002136	0.072937	0.096893	-0.096283	0.004578	-0.049133	-0.79254	0.017548	0.056458	0.039825	0.013275	-0.059052	-0.48966	0.058899	-0.25681	-0.46234	-0.071259	-0.009918	-0.024567	-0.016785	-0.13809	0.008698	-0.012054	0.029907	0.006409	0.053253	-0.028229	-0.000305	-0.011139
53.032	0.006714	0.12878	0.063477	0.005646	0.066986	0.13306	-0.06897	-0.002289	-0.054016	-0.46326	0.016174	0.072021	0.040283	0.21439	-0.036774	-0.016022	0.091858	-0.4068	-0.4483	-0.066071	-0.075531	-0.032196	-0.12558	0.069122	0.16388	-0.011749	0.04303	-0.003357	-0.090179	-0.046387	0.000305	-0.007782
